<svg xmlns="http://www.w3.org/2000/svg" xmlns:xlink="http://www.w3.org/1999/xlink" viewBox="0 0 97 97"><defs><style>.cls-1,.cls-2,.cls-3{stroke:#231f20;stroke-miterlimit:10;}.cls-1{fill:url(#Blue_Radial);}.cls-2,.cls-6{fill:#231f20;}.cls-3{fill:url(#Blue_Radial-2);}.cls-4{fill:#ef4136;}.cls-5{fill:url(#Blue_Radial-3);}.cls-6{font-size:11.27px;font-family:MyriadPro-Regular, Myriad Pro;}.cls-7{letter-spacing:0.01em;}</style><radialGradient id="Blue_Radial" cx="48.5" cy="48.5" r="48" gradientUnits="userSpaceOnUse"><stop offset="0.01" stop-color="#d7f0fc"/><stop offset="0.45" stop-color="#abe1fa"/><stop offset="1" stop-color="#96cff1"/></radialGradient><radialGradient id="Blue_Radial-2" cx="35.41" cy="36.97" r="11.7" xlink:href="#Blue_Radial"/><radialGradient id="Blue_Radial-3" cx="60.4" cy="44.59" r="8.18" xlink:href="#Blue_Radial"/></defs><g id="Layer_4" data-name="Layer 4"><rect class="cls-1" x="0.5" y="0.5" width="96" height="96" rx="4.91"/></g><g id="Layer_1" data-name="Layer 1"><polygon class="cls-2" points="47.64 13.99 4.57 65.23 8.78 66.77 24.25 47.7 43.78 54.83 43.17 79.33 47.38 80.87 47.64 13.99"/><polygon class="cls-3" points="44.27 22.99 26.55 44.61 43.88 50.94 44.27 22.99"/></g><g id="Layer_2" data-name="Layer 2"><path class="cls-4" d="M60.12,32.17l-10.91-.86V84.75h4.07V63.44a15.54,15.54,0,0,1,5.2,2.16c8.49,5.53,8.21,17.75,8.16,19.15H70.7c.16-2.16.78-13.4-7.31-21.34a23.84,23.84,0,0,0-7.78-5l7.78-1.91C76.22,49.9,71.72,34.21,60.12,32.17Z" transform="translate(-1.5 -1.5)"/><path class="cls-5" d="M67,47.87c1-1.46.5-5.73-.49-7.23a10.82,10.82,0,0,0-4-3.15,17.48,17.48,0,0,0-9.23-2V53.68c1.09.12,6.5-.2,10.08-2.44A13,13,0,0,0,67,47.87Z" transform="translate(-1.5 -1.5)"/><text class="cls-6" transform="translate(63.19 60.95)">unner</text></g><g id="Layer_3" data-name="Layer 3"><text class="cls-6" transform="translate(48.79 27.99)"><tspan class="cls-7">c</tspan><tspan x="5.19" y="0">tion</tspan></text></g></svg>